# AST/ASF file generated using VICON BodyLanguage
# -----------------------------------------------
:version 1.10
:name VICON
:units
  mass 1.0
  length 0.45
  angle deg
:documentation
   .ast/.asf automatically generated from VICON data using
   VICON BodyBuilder and BodyLanguage model FoxedUp or BRILLIANT.MOD
:root
   order TX TY TZ RX RY RZ
   axis XYZ
   position 0 0 0  
   orientation 0 0 0 
:bonedata
  begin
     id 1 
     name lhipjoint
     direction 0.567725 -0.736092 0.368589 
     length 2.42353 
     axis 0 0 0  XYZ
  end
  begin
     id 2 
     name lfemur
     direction 0.34202 -0.939693 0  
     length 7.24894  
     axis 0 0 20  XYZ
    dof rx ry rz
    limits (-160.0 20.0)
           (-70.0 70.0)
           (-60.0 70.0)
  end
  begin
     id 3 
     name ltibia
     direction 0.34202 -0.939693 0   
     length 7.6997   
     axis 0 0 20   XYZ
    dof rx
    limits (-10.0 170.0)
  end
  begin
     id 4 
     name lfoot
     direction 0.100767 -0.276854 0.955614   
     length 2.37556   
     axis -90 7.62852e-016 20   XYZ
    dof rx rz
    limits (-45.0 90.0)
           (-70.0 20.0)
  end
  begin
     id 5 
     name ltoes
     direction 1.53592e-011 -4.21894e-011 1   
     length 1.18363   
     axis -90 7.62852e-016 20   XYZ
    dof rx
    limits (-90.0 20.0)
  end
  begin
     id 6 
     name rhipjoint
     direction -0.556459 -0.742938 0.372017   
     length 2.4012  
     axis 0 0 0  XYZ 
  end
  begin
     id 7 
     name rfemur
     direction -0.34202 -0.939693 0   
     length 7.5119   
     axis 0 0 -20   XYZ
    dof rx ry rz
    limits (-160.0 20.0)
           (-70.0 70.0)
           (-70.0 60.0)
  end
  begin
     id 8 
     name rtibia
     direction -0.34202 -0.939693 0   
     length 7.50155   
     axis 0 0 -20   XYZ
    dof rx
    limits (-10.0 170.0)
 end
 begin
     id 9 
     name rfoot
     direction -0.118427 -0.325376 0.938139   
     length 2.32487  
     axis -90 -7.62852e-016 -20   XYZ
    dof rx rz
    limits (-45.0 90.0)
           (-20.0 70.0)
  end
  begin
     id 10 
     name rtoes
     direction -1.53525e-011 -4.21868e-011 1   
     length 1.15233   
     axis -90 -7.62852e-016 -20   XYZ
    dof rx
    limits (-90.0 20.0)
  end
  begin
     id 11 
     name lowerback
     direction 0.0287568 0.999577 -0.00434502   
     length 2.15243   
     axis 0 0 0   XYZ
    dof rx ry rz
    limits (-20.0 45.0)
           (-30.0 30.0)
           (-30.0 30.0)
  end
  begin
     id 12 
     name upperback
     direction 0.0294009 0.99956 0.00404628   
     length 2.15427   
     axis 0 0 0   XYZ
    dof rx ry rz
    limits (-20.0 45.0)
           (-30.0 30.0)
           (-30.0 30.0)
  end
  begin
     id 13 
     name thorax
     direction 0.0151014 0.999868 0.0059419   
     length 2.14898   
     axis 0 0 0   XYZ
    dof rx ry rz
    limits (-20.0 45.0)
           (-30.0 30.0)
           (-30.0 30.0)
  end
  begin
     id 14 
     name lowerneck
     direction -0.0249197 0.989906 0.139515   
     length 1.6861   
     axis 0 0 0   XYZ
    dof rx ry rz
    limits (-20.0 45.0)
           (-30.0 30.0)
           (-30.0 30.0)
  end
  begin
     id 15 
     name upperneck
     direction 0.0438463 0.988795 -0.142693   
     length 1.71276   
     axis 0 0 0   XYZ
    dof rx ry rz
    limits (-20.0 45.0)
           (-30.0 30.0)
           (-30.0 30.0)
  end
  begin
     id 16
     name head
     direction 0.0148499 0.997845 -0.0639186  
     length 1.7209  
     axis 0 0 0   XYZ
    dof rx ry rz
    limits (-20.0 45.0)
           (-30.0 30.0)
           (-30.0 30.0)
  end
  begin
     id 17 
     name lclavicle
     direction 0.940298 0.323464 -0.105876  
     length 3.9048  
     axis 0 0 0   XYZ
    dof ry rz
    limits (-20.0 10.0)
           (0.0 20.0)
  end
  begin
     id 18 
     name lhumerus
     direction 1 -4.48954e-011 -4.9675e-028   
     length 4.6851   
     axis 180 -30 -90   XYZ
    dof rx ry rz
    limits (-60.0 90.0)
           (-90.0 90.0)
           (-90.0 90.0)
  end
  begin
     id 19
     name lradius
     direction 1 -4.48992e-011 -1.03359e-026   
     length 3.39626   
     axis 180 -30 -90   XYZ
    dof rx
    limits (-10.0 170.0)
  end
  begin
     id 20
     name lwrist
     direction 1 -4.48906e-011 -1.67336e-026   
     length 1.69813   
     axis 9.90442e-015 90 90   XYZ
    dof ry
    limits (-180.0 0.0)
 end
  begin
     id 21 
     name lhand
     direction 1 -4.49006e-011 -3.34673e-026   
     length 0.486078   
     axis 2.1355e-014 90 90   XYZ
    dof rx rz
    limits (-90.0 90.0)
           (-45.0 45.0)
  end
  begin
     id 22 
     name lfingers
     direction 1 -4.48992e-011 -6.69345e-026   
     length 0.391889   
     axis 4.27099e-014 90 90   XYZ
    dof rx
    limits (0.0 90.0)
  end
  begin
     id 23
     name lthumb
     direction 0.707107 -6.34926e-011 0.707107   
     length 0.562676   
     axis -90 45 2.85299e-015   XYZ
    dof rx rz
    limits (-45.0 45.0)
           (-45.0 45.0)
  end
  begin
     id 24 
     name rclavicle
     direction -0.882459 0.414895 -0.221648   
     length 3.44646  
     axis 0 0 0   XYZ 
    dof ry rz
    limits (-10.0 20.0)
           (-20.0 0.0)
  end
  begin
     id 25 
     name rhumerus
     direction -1 -4.48962e-011 -2.37984e-027  
     length 5.55576   
     axis 180 30 90   XYZ
    dof rx ry rz
    limits (-90.0 60.0)
           (-90.0 90.0)
           (-90.0 90.0)
  end
  begin
     id 26 
     name rradius
     direction -1 -4.48982e-011 -6.86791e-027   
     length 3.32774   
     axis 180 30 90   XYZ
    dof rx
    limits (-10.0 170.0)
  end
  begin
     id 27 
     name rwrist
     direction -1 -4.48961e-011 -1.67336e-026   
     length 1.66387   
     axis 9.90442e-015 -90 -90   XYZ
    dof ry
    limits (-180.0 0.0)
  end
  begin
     id 28
     name rhand
     direction -1 -4.4897e-011 -3.34673e-026   
     length 0.507628   
     axis 2.1355e-014 -90 -90   XYZ
    dof rx rz
    limits (-90.0 90.0)
           (-45.0 45.0)
  end
  begin
     id 29
     name rfingers
     direction -1 -4.48854e-011 -6.69345e-026   
     length 0.409263   
     axis 4.27099e-014 -90 -90   XYZ
    dof rx
    limits (0.0 90.0)
  end
  begin
     id 30
     name rthumb
     direction -0.707107 -6.34913e-011 0.707107   
     length 0.587622   
     axis -90 -45 -2.85299e-015   XYZ
    dof rx rz
    limits (-45.0 45.0)
           (-45.0 45.0)
  end
:hierarchy
  begin
    root lhipjoint rhipjoint lowerback
    lhipjoint lfemur
    lfemur ltibia
    ltibia lfoot
    lfoot ltoes
    rhipjoint rfemur
    rfemur rtibia
    rtibia rfoot
    rfoot rtoes
    lowerback upperback
    upperback thorax
    thorax lowerneck lclavicle rclavicle
    lowerneck upperneck
    upperneck head
    lclavicle lhumerus
    lhumerus lradius
    lradius lwrist
    lwrist lhand lthumb
    lhand lfingers
    rclavicle rhumerus
    rhumerus rradius
    rradius rwrist
    rwrist rhand rthumb
    rhand rfingers
  end

#!OML:ASF E:\motion texture\Top Level 1\Subject 1\Session 1\male.ASF
:FULLY-SPECIFIED
:DEGREES
86
root 41.219 17.7327 4.68589 114.873 -84.4168 -105.022
lowerback -3.13043 0.00979147 6.69274
upperback -2.23386 -0.255872 3.38825
thorax -0.558391 -0.228291 -0.265342
lowerneck -17.876 -4.55178 -8.74887
upperneck 7.66243 -5.06129 8.00332
head 5.63831 -2.1611 3.44759
rclavicle 8.34896e-015 -3.65764e-014
rhumerus -16.2548 13.7417 -96.3429
rradius 44.3658
rwrist -48.3206
rhand -12.6591 -50.7942
rfingers 7.12502
rthumb 13.4218 -80.3418
lclavicle 8.34896e-015 -3.65764e-014
lhumerus -22.9319 10.6655 94.2126
lradius 25.6028
lwrist 11.2371
lhand -3.86961 38.693
lfingers 7.12502
lthumb 21.8792 67.4759
rfemur -12.6541 2.18356 29.8206
rtibia 19.4602
rfoot -12.342 -10.9809
rtoes 15.199
lfemur -21.1651 0.791949 -12.033
ltibia 32.2419
lfoot -13.7617 4.08348
ltoes -4.1499
87
root 41.2036 17.7316 4.6736 115.144 -84.3126 -105.295
lowerback -3.0617 0.0345478 6.79238
upperback -2.26455 -0.217901 3.39491
thorax -0.627297 -0.213282 -0.312249
lowerneck -17.8552 -4.50769 -8.71291
upperneck 7.69636 -5.01235 7.9931
head 5.64035 -2.13715 3.44412
rclavicle -9.44227e-016 -2.14687e-014
rhumerus -15.4039 14.4738 -96.5482
rradius 45.7577
rwrist -49.0698
rhand -12.7424 -51.3916
rfingers 7.12502
rthumb 13.3415 -80.9445
lclavicle -9.44227e-016 -2.14687e-014
lhumerus -22.6176 10.0581 94.6753
lradius 25.6525
lwrist 11.5651
lhand -3.59794 38.7128
lfingers 7.12502
lthumb 22.14 67.465
rfemur -12.5515 2.21838 29.969
rtibia 19.4105
rfoot -12.3962 -10.8353
rtoes 15.2868
lfemur -21.8401 1.03453 -11.9221
ltibia 33.2557
lfoot -13.871 4.16684
ltoes -4.61105
88
root 41.1869 17.7307 4.66129 115.45 -84.2063 -105.604
lowerback -2.994 0.0601798 6.89192
upperback -2.2956 -0.178616 3.39996
thorax -0.695844 -0.197702 -0.360781
lowerneck -17.8356 -4.46203 -8.67346
upperneck 7.72949 -4.96207 7.98327
head 5.64217 -2.11239 3.44034
rclavicle 2.13694e-015 -7.23576e-014
rhumerus -14.5109 15.1826 -96.7203
rradius 47.201
rwrist -49.7609
rhand -12.7997 -52.0013
rfingers 7.12502
rthumb 13.2862 -81.5578
lclavicle 2.13694e-015 -7.23576e-014
lhumerus -22.3051 9.44718 95.1276
lradius 25.7158
lwrist 11.8988
lhand -3.32722 38.719
lfingers 7.12502
lthumb 22.3999 67.4403
rfemur -12.4386 2.25575 30.1169
rtibia 19.3513
rfoot -12.4507 -10.6864
rtoes 15.3731
lfemur -22.5197 1.2733 -11.8123
ltibia 34.2452
lfoot -13.9691 4.25496
ltoes -5.07996
89
root 41.1686 17.7301 4.64898 115.774 -84.0985 -105.931
lowerback -2.92712 0.0857886 6.99135
upperback -2.32894 -0.139114 3.40385
thorax -0.766202 -0.182208 -0.410498
lowerneck -17.809 -4.41443 -8.63145
upperneck 7.7575 -4.91016 7.97403
head 5.64109 -2.08688 3.43656
rclavicle 2.38542e-015 -4.77083e-015
rhumerus -13.5833 15.8686 -96.8595
rradius 48.6938
rwrist -50.3903
rhand -12.8291 -52.6051
rfingers 7.12502
rthumb 13.2579 -82.1634
lclavicle 2.38542e-015 -4.77083e-015
lhumerus -21.9988 8.83547 95.5684
lradius 25.7927
lwrist 12.2386
lhand -3.05805 38.7111
lfingers 7.12502
lthumb 22.6583 67.401
rfemur -12.3148 2.29487 30.2647
rtibia 19.2825
rfoot -12.5059 -10.5352
rtoes 15.4552
lfemur -23.2021 1.50649 -11.7032
ltibia 35.204
lfoot -14.0516 4.34623
ltoes -5.53289
90
root 41.1489 17.7297 4.63669 116.109 -83.9904 -106.269
lowerback -2.85566 0.111015 7.08784
upperback -2.36769 -0.0991009 3.4075
thorax -0.844588 -0.16686 -0.458843
lowerneck -17.7801 -4.36433 -8.5847
upperneck 7.78776 -4.85572 7.96078
head 5.63993 -2.06031 3.43101
rclavicle -1.11816e-014 1.35174e-014
rhumerus -12.6286 16.5279 -96.9656
rradius 50.2306
rwrist -50.9507
rhand -12.8213 -53.2054
rfingers 7.12502
rthumb 13.2654 -82.7632
lclavicle -1.11816e-014 1.35174e-014
lhumerus -21.704 8.22482 95.9983
lradius 25.8846
lwrist 12.5843
lhand -2.79362 38.6936
lfingers 7.12502
lthumb 22.912 67.3523
rfemur -12.1802 2.33605 30.4109
rtibia 19.2043
rfoot -12.5621 -10.3834
rtoes 15.5339
lfemur -23.884 1.73261 -11.5962
ltibia 36.1243
lfoot -14.1196 4.43848
ltoes -5.9795
91
root 41.1275 17.7294 4.62444 116.448 -83.8827 -106.61
lowerback -2.78823 0.135774 7.18295
upperback -2.40747 -0.0598052 3.40943
thorax -0.921752 -0.151944 -0.508292
lowerneck -17.745 -4.3119 -8.53225
upperneck 7.81121 -4.79929 7.94469
head 5.63527 -2.03296 3.42385
rclavicle -1.04362e-015 2.78299e-014
rhumerus -11.6434 17.1584 -97.0396
rradius 51.8044
rwrist -51.4381
rhand -12.7775 -53.7858
rfingers 7.12502
rthumb 13.3077 -83.3409
lclavicle -1.04362e-015 2.78299e-014
lhumerus -21.4157 7.61447 96.416
lradius 25.9909
lwrist 12.9365
lhand -2.5326 38.6617
lfingers 7.12502
lthumb 23.1625 67.2891
rfemur -12.0342 2.37796 30.5548
rtibia 19.1161
rfoot -12.6203 -10.2308
rtoes 15.6066
lfemur -24.5629 1.95112 -11.4918
ltibia 36.9969
lfoot -14.1682 4.53191
ltoes -6.42707
92
root 41.1045 17.7294 4.61225 116.787 -83.7759 -106.951
lowerback -2.72237 0.159737 7.27637
upperback -2.44963 -0.0213432 3.4096
thorax -1.00046 -0.137618 -0.558684
lowerneck -17.7052 -4.25683 -8.47573
upperneck 7.83007 -4.74051 7.9295
head 5.62817 -2.00439 3.41658
rclavicle -6.36111e-015 7.95139e-015
rhumerus -10.6332 17.7582 -97.0832
rradius 53.4091
rwrist -51.8514
rhand -12.697 -54.3296
rfingers 7.12502
rthumb 13.3852 -83.8796
lclavicle -6.36111e-015 7.95139e-015
lhumerus -21.1349 7.00651 96.8206
lradius 26.1105
lwrist 13.295
lhand -2.27658 38.6179
lfingers 7.12502
lthumb 23.4081 67.2143
rfemur -11.8772 2.41971 30.696
rtibia 19.0186
rfoot -12.6804 -10.0776
rtoes 15.6732
lfemur -25.2358 2.16027 -11.3897
ltibia 37.8166
lfoot -14.1983 4.62354
ltoes -6.86159
93
root 41.0798 17.7296 4.60011 117.109 -83.6711 -107.276
lowerback -2.65768 0.181722 7.36703
upperback -2.49472 0.0147918 3.40846
thorax -1.0816 -0.124653 -0.609
lowerneck -17.654 -4.1983 -8.41432
upperneck 7.83894 -4.67835 7.91242
head 5.61567 -1.97445 3.40834
rclavicle -4.57205e-015 4.53229e-014
rhumerus -9.60571 18.3256 -97.0985
rradius 55.037
rwrist -52.1849
rhand -12.5773 -54.847
rfingers 7.12502
rthumb 13.5006 -84.3894
lclavicle -4.57205e-015 4.53229e-014
lhumerus -20.8647 6.40289 97.2117
lradius 26.2447
lwrist 13.6601
lhand -2.02549 38.558
lfingers 7.12502
lthumb 23.6489 67.1235
rfemur -11.708 2.46028 30.8337
rtibia 18.911
rfoot -12.7429 -9.92529
rtoes 15.7338
lfemur -25.8994 2.35679 -11.2894
ltibia 38.5775
lfoot -14.2121 4.71027
ltoes -7.26625
94
root 41.0533 17.7299 4.58803 117.429 -83.5684 -107.597
lowerback -2.59221 0.202599 7.45356
upperback -2.54386 0.0500448 3.40615
thorax -1.16738 -0.112399 -0.658286
lowerneck -17.5985 -4.13689 -8.35098
upperneck 7.84371 -4.61332 7.89865
head 5.60105 -1.94291 3.40114
rclavicle 2.98177e-015 -2.94201e-014
rhumerus -8.56632 18.859 -97.0862
rradius 56.6804
rwrist -52.4371
rhand -12.4209 -55.316
rfingers 7.12502
rthumb 13.6513 -84.8484
lclavicle 2.98177e-015 -2.94201e-014
lhumerus -20.6057 5.80315 97.5904
lradius 26.3929
lwrist 14.0318
lhand -1.78097 38.4872
lfingers 7.12502
lthumb 23.8835 67.0222
rfemur -11.5276 2.50115 30.9675
rtibia 18.7938
rfoot -12.8081 -9.77484
rtoes 15.7862
lfemur -26.5512 2.54243 -11.1914
ltibia 39.2721
lfoot -14.2081 4.79273
ltoes -7.65252
95
root 41.025 17.7304 4.57603 117.735 -83.4682 -107.904
lowerback -2.52647 0.222127 7.53544
upperback -2.59727 0.0840437 3.40304
thorax -1.25774 -0.101044 -0.70588
lowerneck -17.535 -4.07296 -8.28135
upperneck 7.84049 -4.54605 7.88125
head 5.58222 -1.91054 3.39199
rclavicle 1.15792e-014 -2.22639e-014
rhumerus -7.52006 19.356 -97.0483
rradius 58.3294
rwrist -52.6054
rhand -12.2337 -55.7425
rfingers 7.12502
rthumb 13.8318 -85.2626
lclavicle 1.15792e-014 -2.22639e-014
lhumerus -20.3587 5.20925 97.957
lradius 26.5545
lwrist 14.4085
lhand -1.54246 38.4041
lfingers 7.12502
lthumb 24.1122 66.9089
rfemur -11.3358 2.53957 31.0971
rtibia 18.6669
rfoot -12.8769 -9.62574
rtoes 15.8262
lfemur -27.1887 2.71609 -11.0955
ltibia 39.8941
lfoot -14.1846 4.87015
ltoes -8.02115
96
root 40.9947 17.731 4.56414 118.036 -83.3711 -108.206
lowerback -2.46369 0.240752 7.6124
upperback -2.65206 0.116875 3.39866
thorax -1.34789 -0.0903197 -0.752143
lowerneck -17.47 -4.00721 -8.20712
upperneck 7.82885 -4.47699 7.86329
head 5.56029 -1.87728 3.38204
rclavicle -8.52289e-015 4.77083e-015
rhumerus -6.46805 19.8159 -96.9853
rradius 59.9742
rwrist -52.6903
rhand -12.0134 -56.0905
rfingers 7.12502
rthumb 14.0441 -85.596
lclavicle -8.52289e-015 4.77083e-015
lhumerus -20.1173 4.62145 98.3113
lradius 26.7275
lwrist 14.79
lhand -1.30827 38.3072
lfingers 7.12502
lthumb 24.3367 66.7821
rfemur -11.1333 2.57511 31.2216
rtibia 18.5314
rfoot -12.9508 -9.47712
rtoes 15.8516
lfemur -27.8096 2.87769 -11.0021
ltibia 40.4389
lfoot -14.146 4.94054
ltoes -8.36083
97
root 40.9626 17.7316 4.55246 118.351 -83.2759 -108.519
lowerback -2.39821 0.258936 7.68577
upperback -2.71145 0.149905 3.39291
thorax -1.44428 -0.0798433 -0.797859
lowerneck -17.4026 -3.93919 -8.13082
upperneck 7.81187 -4.4055 7.84746
head 5.53619 -1.84269 3.37265
rclavicle -8.00108e-015 2.8625e-014
rhumerus -5.4209 20.24 -96.9015
rradius 61.6088
rwrist -52.6997
rhand -11.7743 -56.3873
rfingers 7.12502
rthumb 14.2745 -85.8767
lclavicle -8.00108e-015 2.8625e-014
lhumerus -19.8861 4.04292 98.6528
lradius 26.9121
lwrist 15.175
lhand -1.077 38.1972
lfingers 7.12502
lthumb 24.5584 66.6421
rfemur -10.9218 2.60667 31.3404
rtibia 18.3896
rfoot -13.0306 -9.32599
rtoes 15.8605
lfemur -28.412 3.02863 -10.9113
ltibia 40.9021
lfoot -14.0854 5.00799
ltoes -8.68125
98
root 40.9286 17.7323 4.54095 118.661 -83.1846 -108.827
lowerback -2.33752 0.275717 7.75392
upperback -2.77458 0.180978 3.38595
thorax -1.54194 -0.0705005 -0.841995
lowerneck -17.3193 -3.86824 -8.05161
upperneck 7.77885 -4.33108 7.83183
head 5.50424 -1.80698 3.36318
rclavicle 8.74653e-015 -1.90833e-014
rhumerus -4.38692 20.6252 -96.8012
rradius 63.2207
rwrist -52.6332
rhand -11.5131 -56.6184
rfingers 7.12502
rthumb 14.5261 -86.0898
lclavicle 8.74653e-015 -1.90833e-014
lhumerus -19.6654 3.47602 98.9811
lradius 27.1079
lwrist 15.5636
lhand -0.855955 38.088
lfingers 7.12502
lthumb 24.7703 66.504
rfemur -10.7009 2.63497 31.4528
rtibia 18.2403
rfoot -13.116 -9.17554
rtoes 15.8527
lfemur -28.9938 3.16719 -10.8233
ltibia 41.2778
lfoot -14.0034 5.06967
ltoes -8.97812
99
root 40.8925 17.7329 4.52962 118.965 -83.0969 -109.127
lowerback -2.28941 0.291988 7.81974
upperback -2.83257 0.209908 3.37564
thorax -1.62731 -0.0617641 -0.888408
lowerneck -17.2388 -3.79583 -7.9681
upperneck 7.72992 -4.25524 7.82034
head 5.46772 -1.77021 3.35434
rclavicle -3.77691e-015 4.77083e-015
rhumerus -3.35345 20.972 -96.6826
rradius 64.8031
rwrist -52.4966
rhand -11.2343 -56.7856
rfingers 7.12502
rthumb 14.7948 -86.2375
lclavicle -3.77691e-015 4.77083e-015
lhumerus -19.4377 2.91525 99.2947
lradius 27.312
lwrist 15.9569
lhand -0.641862 37.9794
lfingers 7.12502
lthumb 24.9754 66.367
rfemur -10.4719 2.65958 31.559
rtibia 18.085
rfoot -13.2081 -9.02604
rtoes 15.8239
lfemur -29.5548 3.29237 -10.737
ltibia 41.5655
lfoot -13.9015 5.12549
ltoes -9.24698
100
root 40.8544 17.7335 4.51849 119.264 -83.0131 -109.419
lowerback -2.24219 0.307319 7.88048
upperback -2.89355 0.237847 3.36392
thorax -1.71533 -0.0536755 -0.933496
lowerneck -17.1571 -3.72205 -7.88143
upperneck 7.67089 -4.178 7.81037
head 5.42777 -1.73265 3.34552
rclavicle 4.4975e-015 -3.57812e-014
rhumerus -2.34388 21.2762 -96.5519
rradius 66.346
rwrist -52.2868
rhand -10.9406 -56.8935
rfingers 7.12502
rthumb 15.0777 -86.3244
lclavicle 4.4975e-015 -3.57812e-014
lhumerus -19.2155 2.36599 99.5955
lradius 27.5251
lwrist 16.3548
lhand -0.433937 37.8696
lfingers 7.12502
lthumb 25.1747 66.2294
rfemur -10.2344 2.68006 31.6586
rtibia 17.9233
rfoot -13.3065 -8.87745
rtoes 15.7721
lfemur -30.0926 3.40451 -10.6525
ltibia 41.7622
lfoot -13.7798 5.17561
ltoes -9.49049
